1.8Hz3min_grf.mot
version=1
nRows=15
nColumns 19
inDegrees=yes
endheader
time	1_ground_force_vx	1_ground_force_vy	1_ground_force_vz	1_ground_force_px	1_ground_force_py	1_ground_force_pz	1_ground_torque_x	1_ground_torque_y	1_ground_torque_z	2_ground_force_vx	2_ground_force_vy	2_ground_force_vz	2_ground_force_px	2_ground_force_py	2_ground_force_pz	2_ground_torque_x	2_ground_torque_y	2_ground_torque_z
            1.253500	           31.673669	          734.117979	          -55.307153	           -0.294039	            0.006282	           -0.421773	            0.036070	            0.836026	           -0.062985	           -3.095924	          641.975327	           43.494378	           -0.235398	            0.005653	           -0.702955	            0.001262	           -0.261705	           -0.017731
            1.254000	           30.618545	          735.020117	          -55.529947	           -0.293927	            0.006282	           -0.421662	            0.033434	            0.802603	           -0.060636	           -3.326851	          641.053839	           43.491193	           -0.235303	            0.005652	           -0.702738	            0.001914	           -0.368735	           -0.025016
            1.254500	           29.609597	          732.858110	          -55.857714	           -0.294057	            0.006284	           -0.422120	            0.034373	            0.850753	           -0.064844	           -3.982790	          641.051805	           43.397616	           -0.235335	            0.005652	           -0.702825	            0.002176	           -0.350182	           -0.023706
            1.255000	           28.692214	          734.480748	          -55.940194	           -0.293757	            0.006282	           -0.421739	            0.028867	            0.738951	           -0.056281	           -4.589845	          640.497123	           43.395903	           -0.235192	            0.005654	           -0.703035	            0.002374	           -0.331284	           -0.022446
            1.255500	           27.866555	          733.400113	          -56.217919	           -0.293760	            0.006283	           -0.421795	            0.029866	            0.786027	           -0.060252	           -4.917253	          640.312741	           43.113817	           -0.235196	            0.005653	           -0.702909	            0.002353	           -0.306343	           -0.020627
            1.256000	           27.040746	          733.761529	          -56.443601	           -0.293605	            0.006282	           -0.421552	            0.026881	            0.729415	           -0.056109	           -5.520964	          638.837249	           43.155748	           -0.235024	            0.005653	           -0.702754	            0.002713	           -0.313874	           -0.021203
            1.256500	           26.032514	          731.418047	          -56.497006	           -0.293744	            0.006283	           -0.421982	            0.029328	            0.824010	           -0.063649	           -6.078408	          637.545337	           43.386028	           -0.234850	            0.005653	           -0.702607	            0.003215	           -0.337172	           -0.022945
            1.257000	           25.252026	          733.402164	          -56.807557	           -0.293640	            0.006282	           -0.421699	            0.031733	            0.921622	           -0.071387	           -6.685586	          636.991659	           43.102747	           -0.234638	            0.005655	           -0.702787	            0.004297	           -0.409437	           -0.027705
            1.257500	           24.381223	          731.599597	          -56.858984	           -0.293506	            0.006283	           -0.421833	            0.030426	            0.912979	           -0.070956	           -7.151406	          636.253237	           43.147246	           -0.234701	            0.005655	           -0.702900	            0.004481	           -0.398626	           -0.027033
            1.258000	           23.830847	          731.780180	          -56.948558	           -0.293516	            0.006282	           -0.421744	            0.031688	            0.973053	           -0.075725	           -7.568587	          634.964175	           42.720473	           -0.234525	            0.005655	           -0.702753	            0.005114	           -0.429079	           -0.028868
            1.258500	           22.959511	          729.798177	          -57.230035	           -0.293508	            0.006284	           -0.422090	            0.027959	            0.888701	           -0.069691	           -8.126134	          633.673099	           42.716113	           -0.234505	            0.005654	           -0.702546	            0.004896	           -0.381810	           -0.025738
            1.259000	           22.317173	          729.618862	          -57.458490	           -0.293323	            0.006284	           -0.422196	            0.028576	            0.934249	           -0.073573	           -8.687668	          633.486989	           42.715695	           -0.234476	            0.005655	           -0.702774	            0.005266	           -0.383992	           -0.025892
            1.259500	           21.491870	          729.078207	          -57.550473	           -0.293337	            0.006283	           -0.421915	            0.027566	            0.935130	           -0.073815	           -9.009800	          631.829817	           42.334496	           -0.234179	            0.005656	           -0.702578	            0.006012	           -0.421569	           -0.028246
            1.260000	           20.758397	          729.618758	          -57.500481	           -0.293236	            0.006282	           -0.421688	            0.025625	            0.900686	           -0.070982	           -9.663561	          631.273794	           42.661301	           -0.234296	            0.005655	           -0.702551	            0.007097	           -0.463599	           -0.031330
            1.260500	           20.161298	          729.620609	          -57.957561	           -0.292972	            0.006282	           -0.421712	            0.028343	            1.025715	           -0.081478	          -10.267416	          629.799352	           42.374734	           -0.234030	            0.005656	           -0.702631	            0.007778	           -0.477125	           -0.032102
